<svg width="20" height="20" viewBox="0 0 20 20" fill="none" xmlns="http://www.w3.org/2000/svg">
<path d="M5.15359 13.1442C4.98602 13.3126 4.75941 13.5561 4.58887 13.7073C4.19247 13.3999 3.84151 13.2349 3.32519 13.2961C2.74628 13.3646 2.27364 13.7571 2.10295 14.3175C2.08343 14.3809 2.01999 14.5234 2.01999 14.6137C2.01999 14.704 1.97502 14.9041 2.01999 15.0298C2.06496 15.1555 2.10597 15.3078 2.16433 15.4311C2.45514 16.0456 3.07025 16.3492 3.72976 16.2902C3.70298 16.762 3.7833 17.1406 4.10546 17.5036C4.26479 17.6805 4.46501 17.8153 4.68849 17.8961C4.77209 17.926 4.90682 17.965 4.98239 18H5.47406C5.50443 17.9786 5.63377 17.9367 5.67548 17.922C5.9181 17.8373 6.09199 17.7461 6.27509 17.5636C6.56053 17.2777 6.71987 16.8887 6.71741 16.4839C6.71703 16.0893 6.56219 15.7106 6.28626 15.4296C6.79404 14.8832 7.4628 14.2298 8 13.7053L6.29657 12L5.15359 13.1442Z" fill="#F8FAFC"/>
<path d="M18 6.68092C17.9575 6.56718 17.9038 6.19098 17.873 6.0406C17.7897 5.64145 17.656 5.25454 17.4748 4.88928C16.8619 3.63938 15.7702 2.68967 14.4472 2.25531C14.2475 2.1904 14.0493 2.14252 13.8441 2.10062C13.7095 2.07316 13.4724 2.04862 13.3519 2.00513L13.338 2H12.336C12.2206 2.04689 11.9686 2.07784 11.8367 2.1033C11.6187 2.14572 11.4037 2.20189 11.1928 2.27148C9.83469 2.72638 8.72914 3.72885 8.14423 5.03579C7.55524 6.33442 7.72516 7.67692 7.25785 9.00958C7.16402 9.27718 6.97731 9.71331 6.80513 9.93238C6.37668 10.4775 6.01531 10.7109 6.00029 11.478C5.99468 11.7646 6.07213 11.8853 6.08884 12.0841L7.91607 13.9054C9.39296 14.2848 9.42989 13.4357 10.5592 12.9025C11.5751 12.4228 12.8948 12.432 13.9731 12.1871C14.3726 12.0965 14.7597 11.9581 15.126 11.7748C16.3959 11.1451 17.3515 10.0219 17.7694 8.6679C17.82 8.51285 17.8601 8.35458 17.8895 8.19413C17.9146 8.04932 17.9515 7.76889 17.995 7.64463L18 7.6307V6.68092Z" fill="#FFD082"/>
<path d="M5.15359 13.1442C4.98602 13.3126 4.75941 13.5561 4.58887 13.7073C4.19247 13.3999 3.84151 13.2349 3.32519 13.2961C2.74628 13.3646 2.27364 13.7571 2.10295 14.3175C2.08343 14.3809 2.01999 14.5234 2.01999 14.6137C2.01999 14.704 1.97502 14.9041 2.01999 15.0298C2.06496 15.1555 2.10597 15.3078 2.16433 15.4311C2.45514 16.0456 3.07025 16.3492 3.72976 16.2902C3.70298 16.762 3.7833 17.1406 4.10546 17.5036C4.26479 17.6805 4.46501 17.8153 4.68849 17.8961C4.77209 17.926 4.90682 17.965 4.98239 18H5.47406C5.50443 17.9786 5.63377 17.9367 5.67548 17.922C5.9181 17.8373 6.09199 17.7461 6.27509 17.5636C6.56053 17.2777 6.71987 16.8887 6.71741 16.4839C6.71703 16.0893 6.56219 15.7106 6.28626 15.4296C6.79404 14.8832 7.4628 14.2298 8 13.7053L6.29657 12L5.15359 13.1442Z" stroke="#2D3436" stroke-linecap="square"/>
<path d="M18 6.68092C17.9575 6.56718 17.9038 6.19098 17.873 6.0406C17.7897 5.64145 17.656 5.25454 17.4748 4.88928C16.8619 3.63938 15.7702 2.68967 14.4472 2.25531C14.2475 2.1904 14.0493 2.14252 13.8441 2.10062C13.7095 2.07316 13.4724 2.04862 13.3519 2.00513L13.338 2H12.336C12.2206 2.04689 11.9686 2.07784 11.8367 2.1033C11.6187 2.14572 11.4037 2.20189 11.1928 2.27148C9.83469 2.72638 8.72914 3.72885 8.14423 5.03579C7.55524 6.33442 7.72516 7.67692 7.25785 9.00958C7.16402 9.27718 6.97731 9.71331 6.80513 9.93238C6.37668 10.4775 6.01531 10.7109 6.00029 11.478C5.99468 11.7646 6.07213 11.8853 6.08884 12.0841L7.91607 13.9054C9.39296 14.2848 9.42989 13.4357 10.5592 12.9025C11.5751 12.4228 12.8948 12.432 13.9731 12.1871C14.3726 12.0965 14.7597 11.9581 15.126 11.7748C16.3959 11.1451 17.3515 10.0219 17.7694 8.6679C17.82 8.51285 17.8601 8.35458 17.8895 8.19413C17.9146 8.04932 17.9515 7.76889 17.995 7.64463L18 7.6307V6.68092Z" stroke="#2D3436" stroke-linecap="square"/>
</svg>
