<svg width="48" height="31" viewBox="0 0 48 31" fill="none" xmlns="http://www.w3.org/2000/svg">
<path d="M22.8865 9.33745C28.8549 8.78635 34.1383 13.1819 34.6821 19.1509C35.2259 25.12 30.8239 30.398 24.8541 30.9345C18.8948 31.4701 13.628 27.0773 13.0851 21.1186C12.5422 15.1599 16.9286 9.88764 22.8865 9.33745Z" fill="#2D3436"/>
<path d="M23.2185 0.0123251C23.5453 0.000639592 23.8724 -0.00275056 24.1994 0.00221428C30.7141 0.10581 36.9122 2.83072 41.3928 7.56119C44.3955 10.6916 47.2877 15.6877 47.8504 20.2068C47.8599 20.6033 47.6545 21.0583 47.3504 21.2772C45.6687 22.4881 44.7244 20.8228 44.5315 19.3121C44.4954 19.03 44.2464 18.3054 44.1653 18.0567C43.2482 15.2521 41.7783 12.6597 39.8425 10.4327C35.847 5.85098 30.7302 3.49583 24.7168 3.09464C23.9295 3.05135 22.9576 3.09501 22.167 3.16367C14.2573 3.91215 7.40277 8.95576 4.33498 16.2845C3.69887 17.7722 3.37059 19.1082 2.94107 20.6451C2.69852 21.5132 1.56441 21.9615 0.736375 21.4662C-0.529841 20.7087 0.149677 18.9337 0.485227 17.8191C1.56865 14.1707 3.45947 10.8129 6.01746 7.99483C10.5679 3.01509 16.5054 0.309974 23.2185 0.0123251Z" fill="#2D3436"/>
</svg>
